<?xml version="1.0" encoding="UTF-8" standalone="no"?>
<!DOCTYPE svg PUBLIC "-//W3C//DTD SVG 1.1//EN"
 "http://www.w3.org/Graphics/SVG/1.1/DTD/svg11.dtd">
<!-- Generated by graphviz version 2.46.1 (20210213.1702)
 -->
<!-- Pages: 1 -->
<svg width="656pt" height="332pt"
 viewBox="0.00 0.00 655.61 332.00" xmlns="http://www.w3.org/2000/svg" xmlns:xlink="http://www.w3.org/1999/xlink">
<g id="graph0" class="graph" transform="scale(1 1) rotate(0) translate(4 328)">
<polygon fill="white" stroke="transparent" points="-4,4 -4,-328 651.61,-328 651.61,4 -4,4"/>
<!-- [root] aws_iam_user.lb (expand) -->
<g id="node1" class="node">
<title>[root] aws_iam_user.lb (expand)</title>
<polygon fill="none" stroke="black" points="332.13,-108 224.13,-108 224.13,-72 332.13,-72 332.13,-108"/>
<text text-anchor="middle" x="278.13" y="-86.3" font-family="Times,serif" font-size="14.00">aws_iam_user.lb</text>
</g>
<!-- [root] provider[&quot;registry.terraform.io/hashicorp/aws&quot;] -->
<g id="node3" class="node">
<title>[root] provider[&quot;registry.terraform.io/hashicorp/aws&quot;]</title>
<polygon fill="none" stroke="black" points="278.13,-36 25.6,-18 278.13,0 530.67,-18 278.13,-36"/>
<text text-anchor="middle" x="278.13" y="-14.3" font-family="Times,serif" font-size="14.00">provider[&quot;registry.terraform.io/hashicorp/aws&quot;]</text>
</g>
<!-- [root] aws_iam_user.lb (expand)&#45;&gt;[root] provider[&quot;registry.terraform.io/hashicorp/aws&quot;] -->
<g id="edge1" class="edge">
<title>[root] aws_iam_user.lb (expand)&#45;&gt;[root] provider[&quot;registry.terraform.io/hashicorp/aws&quot;]</title>
<path fill="none" stroke="black" d="M278.13,-71.7C278.13,-63.98 278.13,-54.71 278.13,-46.11"/>
<polygon fill="black" stroke="black" points="281.63,-46.1 278.13,-36.1 274.63,-46.1 281.63,-46.1"/>
</g>
<!-- [root] output.arns -->
<g id="node2" class="node">
<title>[root] output.arns</title>
<polygon fill="none" stroke="black" points="168.63,-180 97.63,-180 97.63,-144 174.63,-144 174.63,-174 168.63,-180"/>
<polyline fill="none" stroke="black" points="168.63,-180 168.63,-174 "/>
<polyline fill="none" stroke="black" points="174.63,-174 168.63,-174 "/>
<text text-anchor="middle" x="136.13" y="-158.3" font-family="Times,serif" font-size="14.00">output.arns</text>
</g>
<!-- [root] output.arns&#45;&gt;[root] aws_iam_user.lb (expand) -->
<g id="edge3" class="edge">
<title>[root] output.arns&#45;&gt;[root] aws_iam_user.lb (expand)</title>
<path fill="none" stroke="black" d="M170.87,-143.88C189.95,-134.47 213.81,-122.71 234.18,-112.67"/>
<polygon fill="black" stroke="black" points="235.84,-115.75 243.26,-108.19 232.75,-109.47 235.84,-115.75"/>
</g>
<!-- [root] meta.count&#45;boundary (EachMode fixup) -->
<g id="node4" class="node">
<title>[root] meta.count&#45;boundary (EachMode fixup)</title>
<ellipse fill="none" stroke="black" cx="176.13" cy="-234" rx="176.27" ry="18"/>
<text text-anchor="middle" x="176.13" y="-230.3" font-family="Times,serif" font-size="14.00">[root] meta.count&#45;boundary (EachMode fixup)</text>
</g>
<!-- [root] meta.count&#45;boundary (EachMode fixup)&#45;&gt;[root] output.arns -->
<g id="edge2" class="edge">
<title>[root] meta.count&#45;boundary (EachMode fixup)&#45;&gt;[root] output.arns</title>
<path fill="none" stroke="black" d="M166.25,-215.7C161.65,-207.64 156.07,-197.89 150.98,-188.98"/>
<polygon fill="black" stroke="black" points="153.91,-187.05 145.91,-180.1 147.83,-190.52 153.91,-187.05"/>
</g>
<!-- [root] provider[&quot;registry.terraform.io/hashicorp/aws&quot;] (close) -->
<g id="node5" class="node">
<title>[root] provider[&quot;registry.terraform.io/hashicorp/aws&quot;] (close)</title>
<ellipse fill="none" stroke="black" cx="420.13" cy="-162" rx="227.46" ry="18"/>
<text text-anchor="middle" x="420.13" y="-158.3" font-family="Times,serif" font-size="14.00">[root] provider[&quot;registry.terraform.io/hashicorp/aws&quot;] (close)</text>
</g>
<!-- [root] provider[&quot;registry.terraform.io/hashicorp/aws&quot;] (close)&#45;&gt;[root] aws_iam_user.lb (expand) -->
<g id="edge4" class="edge">
<title>[root] provider[&quot;registry.terraform.io/hashicorp/aws&quot;] (close)&#45;&gt;[root] aws_iam_user.lb (expand)</title>
<path fill="none" stroke="black" d="M385.76,-144.05C366.54,-134.58 342.39,-122.68 321.84,-112.55"/>
<polygon fill="black" stroke="black" points="323.2,-109.31 312.68,-108.03 320.11,-115.59 323.2,-109.31"/>
</g>
<!-- [root] root -->
<g id="node6" class="node">
<title>[root] root</title>
<ellipse fill="none" stroke="black" cx="278.13" cy="-306" rx="47.39" ry="18"/>
<text text-anchor="middle" x="278.13" y="-302.3" font-family="Times,serif" font-size="14.00">[root] root</text>
</g>
<!-- [root] root&#45;&gt;[root] meta.count&#45;boundary (EachMode fixup) -->
<g id="edge5" class="edge">
<title>[root] root&#45;&gt;[root] meta.count&#45;boundary (EachMode fixup)</title>
<path fill="none" stroke="black" d="M256.25,-289.98C242.52,-280.56 224.56,-268.23 209.12,-257.64"/>
<polygon fill="black" stroke="black" points="211.07,-254.73 200.85,-251.96 207.11,-260.5 211.07,-254.73"/>
</g>
<!-- [root] root&#45;&gt;[root] provider[&quot;registry.terraform.io/hashicorp/aws&quot;] (close) -->
<g id="edge6" class="edge">
<title>[root] root&#45;&gt;[root] provider[&quot;registry.terraform.io/hashicorp/aws&quot;] (close)</title>
<path fill="none" stroke="black" d="M305.59,-291.3C322.82,-281.83 344.8,-268.06 361.13,-252 379.91,-233.54 396.01,-208.18 406.62,-189.25"/>
<polygon fill="black" stroke="black" points="409.81,-190.72 411.52,-180.27 403.66,-187.37 409.81,-190.72"/>
</g>
</g>
</svg>
